<?xml version="1.0" encoding="UTF-8"?>
<svg width="140px" height="140px" viewBox="0 0 285 290" version="1.1" xmlns="http://www.w3.org/2000/svg" xmlns:xlink="http://www.w3.org/1999/xlink">
    <!-- Gene1ator: Sketch 63 (92445) - https://sketch.com -->
    <title>图书义卖</title>
    <desc>Created with Sketch.</desc>
    <defs>
        <path d="M299.491127,64.9568758 C265.460164,170.799425 246.599833,226.391343 242.910133,231.73263 C169.743576,225.970592 129.090139,225.110943 120.949822,229.153683 L254.029757,243.172034 L308.259561,76.4809937 L299.491127,64.9568758 Z" id="path-1"></path>
        <path d="M170.814044,86.6956876 C170.409914,93.671249 170.077138,107.640289 169.815715,128.602806 L187.594113,125.027451 L187.594113,82.8321504 C178.563724,83.9972228 172.970367,85.2850686 170.814044,86.6956876 Z" id="path-3"></path>
        <path d="M114.974231,33.597683 C114.570101,40.5732443 114.237325,54.5422839 113.975903,75.5048016 L131.7543,71.9294468 L139.052673,25.9047264 C125.156702,29.6227451 117.130555,32.1870639 114.974231,33.597683 Z" id="path-5"></path>
        <path d="M147.323272,25.9665901 C144.773518,38.3507707 142.798181,52.7140508 141.397262,69.0564304 L220.52701,51.6644666 L218.675445,6.86632503 L178.448922,15.5220711 L173.172325,30.2923118 L174.138707,16.4525202 C158.418074,21.3846144 149.479595,24.5559711 147.323272,25.9665901 Z" id="path-7"></path>
        <polygon id="path-9" points="40.586189 42.0730268 26.6036214 59.8397755 22.9171792 58.7516925 19.2415279 57.6667945 20.1509798 56.7226618 18.4871171 57.4440809 13.9936335 56.1177692 39.518331 41.4494811"></polygon>
        <path d="M11.7115601,1.08310836 C16.8046004,5.44669859 19.5448418,8.64436899 19.9322845,10.6761196 C24.1492071,7.91476287 28.6780237,5.62539618 30.8641511,6.37197322 C27.5691125,13.5530664 25.0090674,19.3041586 23.1840158,23.6252499 C19.0742246,24.7079483 15.3821803,26.0557527 12.1078828,27.6686631 C8.94444378,25.3709866 5.13805196,22.4934932 0.688707365,19.0361829 L11.7115601,1.08310836 Z" id="path-11"></path>
        <path d="M5.4482422,7.52413133e-14 C5.1411736,3.19030828 2.60408111,14.5894057 2.31523294,16.3006941 C4.33700843,16.9932237 40.1715679,20.81983 41.7516612,21.0497576 C43.453213,13.6579807 38.8440954,11.120698 35.5435279,11.120698 C32.2429604,11.120698 22.6537186,10.5029796 21.1679133,7.86083176 C20.3239353,6.36001956 18.9177764,2.28423882 19.2308839,7.52413133e-14 C18.2394845,7.52413133e-14 5.66860498,7.52413133e-14 5.4482422,7.52413133e-14 Z" id="path-13"></path>
        <path d="M5.4482422,7.52413133e-14 C5.1411736,3.19030828 2.60408111,14.5894057 2.31523294,16.3006941 C4.33700843,16.9932237 40.1715679,20.81983 41.7516612,21.0497576 C43.453213,13.6579807 38.8440954,11.120698 35.5435279,11.120698 C32.2429604,11.120698 22.6537186,10.5029796 21.1679133,7.86083176 C20.3239353,6.36001956 18.9177764,2.28423882 19.2308839,7.52413133e-14 C18.2394845,7.52413133e-14 5.66860498,7.52413133e-14 5.4482422,7.52413133e-14 Z" id="path-15"></path>
        <path d="M54.5781993,61.3731279 C63.043016,61.672622 73.7197243,57.5609339 69.9700843,44.8728219 C69.7307815,43.8887008 70.6606535,43.7051096 70.6606535,41.9888123 C70.4780543,40.3781029 69.3223804,41.882043 68.4478864,40.6222998 C64.9073728,33.8385657 59.8163619,28.1676402 52.2018222,28.1676402 C42.2759672,28.1676402 36.0619892,35.8353238 36.0619892,45.7611787 C36.0619892,52.0836008 38.9798895,55.3526463 44.0869028,58.1140193 C46.9976196,59.6878501 50.9747664,61.3731279 54.5781993,61.3731279 Z" id="path-17"></path>
        <path d="M44.6117841,67.2191145 C52.3227873,66.348017 59.2517565,67.9826737 65.3986918,72.1230846 C71.9241094,79.4347182 79.1026313,88.7660023 86.9342575,100.116937 C73.5936119,112.730841 62.9738322,120.581842 55.0749185,123.66994 C48.9867039,114.642354 46.7187038,112.263223 43.9812586,97.4941271 C42.3185105,88.5232496 42.5286857,78.4315787 44.6117841,67.2191145 Z" id="path-19"></path>
    </defs>
    <g id="页面-1" stroke="none" stroke-width="1" fill="none" fill-rule="evenodd">
        <g id="iPhone-8" transform="translate(-245.000000, -617.000000)">
            <g id="场景" transform="translate(182.000000, 182.000000)">
                <g id="图书义卖" transform="translate(0.000000, 387.000000)">
                    <circle id="椭圆形" fill="#FFE5C4" cx="116.97235" cy="80.1059908" r="14.7465438"></circle>
                    <circle id="椭圆形" fill="#FFE5C4" cx="199" cy="57.0645161" r="8.29493088"></circle>
                    <ellipse id="椭圆形" fill="#FFECD5" cx="335.40553" cy="157.525346" rx="11.9815668" ry="11.0599078"></ellipse>
                    <g id="书" transform="translate(199.129364, 186.463091) rotate(-24.000000) translate(-199.129364, -186.463091) translate(40.604018, 53.744196)">
                        <g id="编组-46" transform="translate(-0.000000, -0.000000)">
                            <path d="M85.7205823,2.95684342 L0.661831215,154.00507 C65.1983926,186.862994 104.764495,212.714768 119.360139,231.560392 C129.808657,233.133501 232.765962,244.430222 257.530846,255.443005 C261.020173,248.564477 280.22215,189.079392 315.136778,76.9877488 L188.229092,66.940854 L93.6960425,6.28122477 L85.7205823,2.95684342 Z" id="路径-434" fill="#F68600"></path>
                            <mask id="mask-2" fill="white">
                                <use xlink:href="#path-1"></use>
                            </mask>
                            <use id="路径-371" fill="#FFDFB5" xlink:href="#path-1"></use>
                            <path d="M240.979729,229.198558 L255.836847,246.052723 C176.155278,236.589133 131.192936,230.956119 120.949822,229.153683 C123.010287,227.464877 128.005081,226.064974 135.934205,224.953974 L240.979729,229.198558 Z" id="路径-410" fill="#FFCC83" mask="url(#mask-2)"></path>
                            <path d="M105.932015,-1.92386217e-13 C62.7047883,80.4967785 36.2863488,128.038615 26.6766962,142.625509 C45.4958207,142.108056 102.036612,195.599448 120.147343,226.042429 C121.060631,227.577608 120.945317,229.153273 120.945317,229.153273 C119.967547,228.53976 83.2648948,189.940382 62.9590217,173.731675 C43.0613759,157.848825 25.3605351,150.111409 10.1999478,150.670721 C10.7752321,149.209449 77.7432875,33.5468927 91.5767401,5.52723286 C92.1737815,4.69698063 95.2847871,3.04759347 99.1912963,1.53272828 C100.789063,0.913146611 103.035969,0.402237185 105.932015,-1.92386217e-13 Z" id="路径-370" fill="#FFDFB5"></path>
                            <path d="M109.712319,2.95684342 L33.2817556,139.382695 C60.6307604,154.156254 80.113369,168.33323 91.7295813,181.913623 C103.345794,195.494016 112.724385,208.403459 119.865354,220.641953 L187.754437,64.9568758 L158.558817,22.1631866 L109.712319,2.95684342 Z" id="路径-374" fill="#EA8C1D"></path>
                            <polygon id="路径-377" fill="#FFC594" points="99.1875735 117.520648 84.8185322 183.808852 75.6299338 173.942511 96.4236077 114.685867"></polygon>
                            <path d="M77.6251655,62.5205523 C95.6738099,72.9224881 105.75575,78.6638439 107.870985,79.7446197 C106.908229,81.7480103 105.204432,84.6951448 105.204432,84.6951448 C105.204432,84.6951448 95.0601009,79.0841366 74.771439,67.8621203 L77.6251655,62.5205523 Z" id="路径-378" fill="#FFE7C7"></path>
                            <path d="M74.771439,67.8621203 C82.0588033,72.1012074 109.329698,86.7588546 109.693498,87.2773532 C108.783689,88.9472903 106.557253,93.1683613 106.557253,93.1683613 C106.557253,92.9567538 95.0172198,86.4365828 71.9371538,73.6078485 C73.2037301,70.8918939 74.1484919,68.9766511 74.771439,67.8621203 Z" id="路径-378" fill="#FFE7C7"></path>
                            <path d="M69.137201,79.7446197 C77.7877274,84.3565714 110.154297,103.532755 110.518096,104.051253 C109.65627,104.62656 106.017758,104.051253 104.13537,107.755352 C102.620459,111.799398 104.558734,116.393321 104.558734,116.393321 C102.823913,115.24202 89.128591,106.383701 63.4727669,89.8183649 C66.6261092,84.2170657 68.5142538,80.8591506 69.137201,79.7446197 Z" id="路径-378" fill="#FFE7C7"></path>
                            <path d="M72.6308856,74.0760909 C73.3630863,74.5161949 103.643962,91.2585338 104.007761,91.7770323 C102.817096,91.9478886 101.823827,92.5510619 101.139247,93.8067166 C100.346952,95.2599424 100.62788,97.8320006 100.62788,97.8320006 C97.8250319,96.0584326 87.2117671,89.9048257 68.7880858,79.3711799 C71.3499524,76.9826436 72.6308856,75.217614 72.6308856,74.0760909 Z" id="路径-378" fill="#FFE7C7"></path>
                            <path d="M167.989723,36.664207 L176.339324,46.7536995 L149.454219,78.73551 C153.72633,67.4656699 157.039454,59.1944129 159.393591,53.9217393 C161.747728,48.6490656 164.613105,42.8965549 167.989723,36.664207 Z" id="路径-382" fill="#FFC594"></path>
                            <path d="M107.870985,2.95684342 L136.713586,12.0675447 L132.131642,34.0122212 L136.713586,22.2210271 L144.278851,26.1607898 L142.152516,34.0122212 L148.857884,37.9305003 L142.152516,58.2870426 L158.719439,30.621943 L167.989723,37.9305003 L158.558817,57.3978597 L160.076723,59.5322654 L150.180577,77.8073769 L162.304814,61.1619209 L175.602004,44.1324453 L183.82896,58.2870426 L185.246074,67.8621203 C176.593798,88.0000203 171.752524,100.858096 170.722252,106.436347 C136.282213,71.943179 107.647639,51.3267677 84.8185322,44.5871128 L107.870985,2.95684342 Z" id="路径-380" fill="#FFE7C7"></path>
                            <path d="M108.333379,51.2848984 C115.591498,40.385769 123.870311,27.5823246 133.169818,12.8745651 C123.594008,29.8672569 116.046409,43.2809225 110.527021,53.115562 C110.42875,53.2650634 108.233113,51.4354623 108.333379,51.2848984 Z" id="路径-381" fill="#FFC594" transform="translate(120.749933, 32.999403) rotate(-11.000000) translate(-120.749933, -32.999403) "></path>
                            <polygon id="路径-383" fill="#FFC594" points="64.2111206 87.9386782 102.266736 110.125031 64.7624638 86.9321695"></polygon>
                            <polygon id="路径-383" fill="#FFC594" points="76.2427689 67.0041443 105.216841 82.2369689 76.6628239 66.3810353"></polygon>
                            <polygon id="路径-383" fill="#FFC594" points="67.9376784 77.7114492 99.7089712 95.6271423 68.7880858 77.283965"></polygon>
                            <polygon id="路径-383" fill="#FFC594" points="67.7713501 76.5786022 100.62788 94.0704662 69.8635589 75.1225903"></polygon>
                            <polygon id="路径-383" fill="#FFC594" points="72.8542014 70.3886384 106.70513 90.3612834 73.4936942 70.1187694"></polygon>
                            <polygon id="路径-383" fill="#FFC594" points="69.4656339 70.3886384 107.521249 92.5749911 70.0169771 69.3821297"></polygon>
                            <polygon id="路径-435" fill="#FFC594" points="65.8516811 85.9540457 103.840933 109.081767 102.266736 107.325482 65.8516811 85.5570122"></polygon>
                            <polygon id="路径-435" fill="#FFC594" points="65.8516811 84.2617987 103.840933 107.38952 102.266736 105.633235 65.8516811 83.8647651"></polygon>
                        </g>
                        <g id="编组-29" transform="translate(91.369918, 6.281225)" fill="#FFC594">
                            <polygon id="路径-381" points="22.9042676 3.30663811e-14 -2.10675677e-14 37.0406276 23.7733326 3.30663811e-14"></polygon>
                            <polygon id="路径-381" points="1.93688566 37.0406276 0.819634584 37.0406276 24.7112692 0.609597301"></polygon>
                            <polygon id="路径-381" points="2.32612419 37.7084785 26.280219 0.609597301 25.6552036 0.609597301"></polygon>
                            <polygon id="路径-381" points="9.36220003 30.3829822 27.6289036 2.07275477 26.9776219 2.07275477"></polygon>
                            <polygon id="路径-381" points="5.51448825 37.0406276 23.7811918 8.73040011 22.476767 10.4129382"></polygon>
                            <polygon id="路径-381" points="6.05470665 37.431464 24.3214102 9.12123647 23.0169854 10.8037746"></polygon>
                            <polygon id="路径-381" points="13.2909859 32.3547228 32.3411303 2.53878374 32.057164 2.53878374"></polygon>
                            <polygon id="路径-381" points="9.44327416 39.0123681 27.7099777 10.7021406 26.4055529 12.3846787"></polygon>
                            <path d="M9.98349256,39.4032045 C17.2443865,28.5029178 24.4773912,17.5022446 31.6825064,6.40118481 C24.1944453,17.501536 16.8666818,28.5022093 9.69921607,39.4032045 C9.60090778,39.5527215 9.88318837,39.5537843 9.98349256,39.4032045 Z" id="路径-381"></path>
                            <path d="M41.4249482,145.801496 L60.7023069,83.0847893 L51.8607599,78.41392 C38.6624198,111.623855 31.1976662,130.624383 29.4664993,135.415502 C30.0350522,137.496183 34.0212019,140.958181 41.4249482,145.801496 Z" id="路径-379"></path>
                        </g>
                        <g id="编组-29" transform="translate(133.014460, 46.342339) rotate(-10.000000) translate(-133.014460, -46.342339) translate(118.267916, 24.222523)" fill="#FFC594">
                            <path d="M23.4763675,0.725945342 L4.81544405e-14,38.7328747 C8.08754396,25.813916 15.9859943,13.2301621 23.6953511,0.981613102 C23.7416805,0.719182187 23.6686859,0.6339596 23.4763675,0.725945342 Z" id="路径-381"></path>
                            <polygon id="路径-381" points="1.93688566 38.7328747 0.819634584 38.7328747 24.7112692 2.30184437"></polygon>
                            <polygon id="路径-381" points="2.32612419 39.4007256 26.280219 2.30184437 25.6552036 2.30184437"></polygon>
                            <polygon id="路径-381" points="15.12468 41.7051961 28.0836377 19.6302133 28.7202929 16.0239025"></polygon>
                            <polygon id="路径-381" points="5.51448825 38.7328747 23.7811918 10.4226472 22.476767 12.1051853"></polygon>
                            <polygon id="路径-381" points="6.05470665 39.123711 24.3214102 10.8134835 23.0169854 12.4960217"></polygon>
                            <polygon id="路径-381" points="13.2909859 34.0469698 26.1785313 12.7855271 25.894565 12.7855271"></polygon>
                            <polygon id="路径-381" points="9.44327416 40.7046152 25.9100859 14.348568 24.6056612 16.0311062"></polygon>
                            <path d="M11.8737957,43.7421207 C13.8709531,40.2204247 19.1141099,30.3939806 27.6032659,14.2627883 C17.6795973,32.4758287 12.3416817,42.3022728 11.5895192,43.7421207 C11.4912109,43.8916377 11.7734915,43.8927006 11.8737957,43.7421207 Z" id="路径-381"></path>
                        </g>
                        <g id="编组-29" transform="translate(168.716974, 76.102750) rotate(4.000000) translate(-168.716974, -76.102750) translate(154.685020, 54.251211)" fill="#FFC594">
                            <path d="M26.9400444,14.2428031 C18.8668516,29.9249949 13.8806062,39.4779268 11.9813082,42.9015989 C11.8859189,43.0479875 11.6174699,43.0469542 11.7109611,42.9015989 C12.4262682,41.5018282 17.5026293,31.9488962 26.9400444,14.2428031 Z M27.2085138,14.5623678 L26.6531344,18.1268897 L15.3485275,39.9460737 L27.2085138,14.5623678 Z M26.2754932,12.6405377 L25.2461461,14.4014862 L25.56571,13.9746565 L23.0771461,18.1164862 L14.4155069,32.9475024 L19.2001461,24.5704862 L10.3171562,39.3583625 L23.4471461,17.1344862 L26.0141683,12.6405377 L26.2754932,12.6405377 Z M25.1254833,1.35019635 L18.7921461,12.0684862 L24.256575,3.01673438 L24.831274,3.01673438 L10.0571461,26.8534862 L4.12978783,36.8873847 L3.83814606,36.8864862 L2.8055852,38.5539227 L3.81114606,36.8864862 L3.09979448,36.8873847 L25.1254833,1.35019635 Z M23.0938641,1.07853176 C23.2725294,0.988512551 23.3403419,1.07191319 23.2973016,1.32873367 C16.1352524,13.3154244 8.79753389,25.6301537 1.28414606,38.2729216 L1.28414606,38.2729216 Z M24.3513501,10.1879425 L7.40851256,37.2638956 L23.1414626,11.797125 L24.3513501,10.1879425 Z" id="形状结合"></path>
                        </g>
                        <g id="编组-31" transform="translate(33.281756, 61.091925)">
                            <path d="M157.316584,2.02159563 C167.147139,1.3644125 176.982857,0.884026687 186.823739,0.580438199 C215.066509,-0.559958513 241.528386,0.534879066 266.209371,3.86495094 L215.46881,162.400942 L90.7795334,161.06958 L157.316584,2.02159563 Z" id="路径-387" fill="#EA8C1D"></path>
                            <path d="M62.3211834,68.940444 C64.5130803,69.7295534 65.7842068,70.6723531 65.7842068,70.6723531 C65.7842068,70.6723531 66.9108338,67.0117396 69.1640878,59.6905125 L77.2363406,65.8468049 C74.7326944,75.6854698 73.4808713,80.6048023 73.4808713,80.6048023 C73.4808713,80.6048023 78.0226769,85.7067454 80.9926371,89.59817 C80.9926371,89.1996216 82.6761662,85.0528726 86.0432242,77.1579231 C95.5561973,87.5609458 102.107897,97.7152545 105.698322,107.620849 C104.595273,117.358982 98.7929576,134.052845 88.2913766,157.702438 L50.3836452,120.996208 C55.0069344,98.4361109 58.9861138,81.0841897 62.3211834,68.940444 Z" id="路径-376" fill="#FFE7C7"></path>
                            <path d="M27.192096,32.9785413 C40.1220402,38.0599944 52.1052922,44.9317946 63.1418521,53.5939419 C52.7825645,90.1908357 47.3252286,111.519848 46.7698444,117.580979 C32.0854992,106.174286 16.495551,93.07755 0,78.2907701 C4.06253064,71.170883 13.1265627,56.0668067 27.192096,32.9785413 Z" id="路径-375" fill="#FFE7C7"></path>
                            <polygon id="路径-379" fill="#FFE7C7" points="74.589229 57.4764617 97.2442764 11.4164382 115.576129 26.197985 93.6662602 79.2724056"></polygon>
                            <path d="M97.6794294,89.0292676 L117.333286,27.5729357 L134.707968,47.5270736 C121.001132,79.4271977 113.163105,99.3314826 111.193886,107.239928 C106.577901,103.001323 102.073082,96.9311029 97.6794294,89.0292676 Z" id="路径-379" fill="#FFE7C7"></path>
                            <polygon id="路径-436" fill="#FFC594" points="85.1400336 69.3028586 103.831549 16.3908363 83.1892909 66.9739122"></polygon>
                        </g>
                        <g id="编组-29" transform="translate(65.578625, 130.563254) scale(1, -1) rotate(118.000000) translate(-65.578625, -130.563254) translate(34.006729, 98.222975)" fill="#FFBF89">
                            <path d="M56.5128015,22.5478701 L31.5925306,63.3397562 L31.3583329,62.8998237 L55.2083767,24.2304082 L56.5128015,22.5478701 Z M60.6548278,16.8923245 C61.6256865,15.3124907 61.9007848,15.4412174 61.4801227,17.2785047 C47.3901162,40.205018 38.0192969,55.1658061 33.367665,62.160869 L33.0801526,62.5920709 C32.2865304,63.7789879 32.2840838,62.8983281 32.5141603,62.2778096 C32.4528545,62.3698438 44.5613508,43.0805012 60.6548278,16.8923245 Z M61.1439541,14.3845132 L30.9486441,62.3712695 L60.8599878,14.3845132 L61.1439541,14.3845132 Z M57.3308469,14.2339039 L57.4974652,14.5468907 L30.7931662,61.743575 L29.3252087,60.5677382 L57.3308469,14.2339039 Z M45.750508,31.8999527 L28.6462254,60.2032885 L28.0211331,60.0811429 C34.2682428,50.18445 39.9799346,41.107207 45.1562086,32.8494139 L45.750508,31.8999527 Z M56.4317274,13.9184842 L27.7348914,59.5434476 L55.7804457,13.9184842 L56.4317274,13.9184842 Z M55.0830428,12.4553268 L24.6970368,59.2588901 L54.4580274,12.4553268 L55.0830428,12.4553268 Z M53.514093,12.4553268 L24.4914059,58.2914174 L23.7518242,58.6841873 L53.514093,12.4553268 Z M52.5761564,11.8457295 L22.472291,57.7841133 L51.7070914,11.8457295 L52.5761564,11.8457295 Z M17.781508,30.3519527 L4.25419124,49.7157471 L3.83253837,49.9396744 L17.781508,30.3519527 Z M39.0116326,2.78195952 L5.72987351,48.9320562 L23.5508633,23.253604 L39.0116326,2.78195952 Z M36.0772526,2.20123856 L36.2673684,2.55836454 L3.67053781,48.6193742 L3.24888494,48.8433015 L36.0772526,2.20123856 Z M35.9382795,1.47606998 L36.1283952,1.83319596 L3.44731533,48.2000584 L3.02566246,48.4239858 L35.9382795,1.47606998 Z M35.4378159,0.642952716 L35.4719503,1.06419906 L1.48250799,48.3811487 L1.67975411,47.9066257 L35.4378159,0.642952716 Z M56.6508519,14.4438918 C53.5002367,19.5110941 50.0636957,25.0159021 46.3412289,30.9583157 L45.755508,31.8919527 L56.4871465,14.1363767 C56.8711927,13.8525254 56.9257611,13.9550304 56.6508519,14.4438918 Z M37.2432909,3.02668425 L17.781508,30.3519527 L36.1318107,4.08885274 L37.2432909,3.02668425 Z" id="形状结合"></path>
                        </g>
                        <g id="编组-29" transform="translate(117.501075, 173.406617) scale(1, -1) rotate(128.000000) translate(-117.501075, -173.406617) translate(85.052183, 143.688523)" fill="#FFC594">
                            <path d="M59.901369,22.5478701 L35.0284018,58.8307471 L33.3315504,59.0840165 L58.5969442,24.2304082 L59.901369,22.5478701 Z M64.0777142,18.6477835 C50.4464075,38.4127748 41.3574166,51.6952042 36.8107415,58.4950717 C36.0759061,59.5940689 36.5952527,57.6577535 36.0754102,58.2668241 L36.0282325,58.32607 L36.054388,58.2892323 C37.2099766,56.6591839 46.363707,43.7104805 63.5155791,19.4431222 Z M56.5128015,20.9669659 L33.2003059,57.2798516 L55.2083767,22.6495041 L56.5128015,20.9669659 Z M61.490978,18.4956745 L61.7792547,18.5154451 L34.3580683,57.0178648 L61.490978,18.4956745 Z M55.9725831,20.5761296 L33.6307991,55.5115571 L33.1844998,54.9410068 L54.6681583,22.2586677 L55.9725831,20.5761296 Z M56.7356879,18.3296092 L31.5247691,55.2250782 L56.0844062,18.3296092 L56.7356879,18.3296092 Z M54.791724,18.2674942 L30.3962661,54.5323069 L27.9933234,54.6453381 L54.1667087,18.2674942 L54.791724,18.2674942 Z M39.326847,1.47606998 L39.5169628,1.83319596 L2.58299589,54.3526737 L2.16134302,54.576601 L39.326847,1.47606998 Z M34.2474628,5.61547728 L35.7693645,5.80910907 L0.719232488,54.4760829 L0.916478605,54.0015598 L34.2474628,5.61547728 Z M39.4658201,2.20123856 L39.6559359,2.55836454 L4.67292418,53.3326036 L4.2512713,53.5565309 L39.4658201,2.20123856 Z M42.4002001,2.78195952 L6.00149175,53.2131183 L26.9394308,23.253604 L42.4002001,2.78195952 Z M52.3709446,17.9086393 L28.0024674,52.6690097 L27.2628857,53.0617795 L52.3709446,17.9086393 Z M20.1922325,32.05907 L6.13332515,52.4055967 L5.71167228,52.629524 L20.1922325,32.05907 Z M40.6318584,3.02668425 L20.1922325,32.05907 L39.5203782,4.08885274 L40.6318584,3.02668425 Z" id="形状结合"></path>
                        </g>
                        <g id="编组-30" transform="translate(163.469248, 135.427973) rotate(15.000000) translate(-163.469248, -135.427973) translate(50.105193, 32.202167)">
                            <polygon id="路径-389" fill="#FFE7C7" points="202.041853 84.569386 202.067499 125.183316 216.719992 125.183316 217.645667 84.569386"></polygon>
                            <polygon id="路径-389" fill="#FFE7C7" points="202.067499 93.7497024 202.067499 125.183316 197.185342 125.183316 197.185342 94.5332343"></polygon>
                            <path d="M198.925152,94.478699 L199.62642,122.951293 L198.45515,123.523087 L198.925152,94.478699 Z M201.994594,93.8382707 L202.787322,122.73687 L202.299734,123.523087 L202.26715,122.018271 L202.005452,122.439818 L201.21515,97.6842707 L201.452592,122.439818 L200.863331,122.907086 L200.863331,93.9457403 L201.179665,93.8920055 L201.18515,94.5262707 L202.23215,120.309271 L201.67826,93.8920055 L201.994594,93.8382707 Z M199.478685,94.2048605 L200.60545,121.969038 L200.311168,122.439818 L199.419555,94.478699 L199.478685,94.2048605 Z" id="形状结合" fill="#FFC594"></path>
                            <mask id="mask-4" fill="white">
                                <use xlink:href="#path-3"></use>
                            </mask>
                            <use id="路径-389" fill="#FFE7C7" xlink:href="#path-3"></use>
                            <polygon id="路径-406" fill="#FFC594" mask="url(#mask-4)" points="186.688647 81.6206314 185.824132 127.018574 188.981887 125.027451 190.300168 81.6206314"></polygon>
                            <mask id="mask-6" fill="white">
                                <use xlink:href="#path-5"></use>
                            </mask>
                            <use id="路径-389" fill="#FFE7C7" xlink:href="#path-5"></use>
                            <mask id="mask-8" fill="white">
                                <use xlink:href="#path-7"></use>
                            </mask>
                            <use id="路径-389" fill="#FFE7C7" xlink:href="#path-7"></use>
                            <polygon id="路径-437" fill="#FFC594" mask="url(#mask-8)" points="186.257023 14.1406875 177.848946 59.7803704 179.138754 59.0296413 188.635544 14.5169553"></polygon>
                            <polygon id="路径-438" fill="#FFC594" mask="url(#mask-8)" points="191.691607 13.3160638 183.48999 57.3014052 186.716854 55.1928905 195.55981 13.9279904"></polygon>
                            <polygon id="路径-350" fill="#FFC594" mask="url(#mask-8)" points="200.665431 9.26295831 194.89268 56.3115985 205.628559 53.4468843 211.674132 8.36660693 205.413449 8.27424136 200.695644 36.6685353"></polygon>
                            <path d="M134.699813,29.532792 L129.597478,71.4342271 L132.755232,69.4431049 C136.866834,53.0036069 139.897195,38.6381266 141.846315,26.3466639 C140.832258,27.0851963 138.450091,28.147239 134.699813,29.532792 Z" id="路径-406" fill="#FFC594"></path>
                            <polygon id="路径-389" fill="#FFE7C7" points="108.973668 106.700709 105.313573 145.403586 170.432148 128.008638 170.626943 88.7044007 170.74582 102.387119 166.496151 103.694192 166.582473 89.7889224"></polygon>
                            <polygon id="路径-389" fill="#FFE7C7" points="187.569914 75.6625778 187.594113 127.964801 198.925152 125.595299 197.639178 73.5937108"></polygon>
                            <polygon id="路径-386" fill="#FFE7C7" points="176.371137 146.991654 171.954252 148.129267 168.44771 179.869242 174.665566 178.489246"></polygon>
                            <polygon id="路径-386" fill="#FFE7C7" points="191.760804 127.95772 201.675627 125.125381 201.196898 173.021934 190.300168 174.885637"></polygon>
                            <polygon id="路径-388" fill="#FFC594" points="192.712331 130.292076 193.661539 172.967605 192.712331 173.314235"></polygon>
                            <polygon id="路径-388" fill="#FFC594" points="196.100898 123.523087 196.575502 172.698853 196.100898 172.37598"></polygon>
                            <polygon id="路径-388" fill="#FFC594" points="197.795182 129.878516 198.360839 129.878516 197.795182 173.314235"></polygon>
                            <polygon id="路径-386" fill="#FFE7C7" points="176.693779 140.565346 192.300548 137.410379 193.28502 173.703212 174.665566 178.489246"></polygon>
                            <polygon id="路径-386" fill="#FFE7C7" points="205.644322 124.629584 214.69633 121.911222 214.632866 170.196611 202.067499 172.698853"></polygon>
                            <polygon id="路径-386" fill="#FFC594" points="206.193385 125.1072 201.560696 125.1072 201.196898 172.698853 202.067499 172.698853"></polygon>
                            <polygon id="路径-388" fill="#FFC594" points="176.371137 147.530848 176.371137 178.304683 174.665566 178.489246"></polygon>
                            <polygon id="路径-388" fill="#FFC594" points="175.518352 147.426535 172.409424 178.489246 171.287873 178.489246 173.844396 147.566643"></polygon>
                            <polygon id="路径-388" fill="#FFC594" points="172.904236 147.878989 170.024398 178.489246 170.992324 178.489246 173.403112 147.878989"></polygon>
                            <polygon id="路径-388" fill="#D29C9C" points="174.665566 147.436096 173.743364 177.428448 174.599425 147.436096"></polygon>
                            <polygon id="路径-381" fill="#FFBF89" points="20.761661 94.3180035 0.554865632 157.697012 22.4196475 95.1739303"></polygon>
                            <path d="M226.489381,-0.00713507436 L218.240716,176.637867 C190.805078,180.957459 171.593357,184.47081 160.605553,187.177921 C136.780424,193.047817 103.534333,200.858586 96.5752617,204.749143 C96.4754624,204.292226 95.6672503,197.598981 97.8164922,196.920972 C133.858409,185.551027 171.063857,176.326873 209.432835,169.24851 L209.432835,169.24851 L211.988204,124.323865 L102.265549,150.881652 L103.699164,143.948227 L212.435204,116.476865 L215.963204,54.4688649 L111.191529,79.8270133 L112.625144,72.8935882 L216.407204,46.6728649 L218.575603,8.56734615 C186.133518,15.222641 154.092016,23.88081 122.451098,34.5418532 L119.660292,35.4877312 C119.737631,34.2054073 120.6905,28.1964592 120.998219,26.2559329 C158.083977,13.1608938 193.247697,4.40653782 226.489381,-0.00713507436 L226.489381,-0.00713507436 Z" id="形状结合" fill="#FFB257"></path>
                            <path d="M181.939141,143.817625 C181.891825,144.108061 181.669187,147.430332 181.637623,147.90346 L181.633898,147.95939 C181.633898,147.970997 181.092912,148.059893 180.010942,148.226076 L180.010942,148.226076 L180.186016,144.195111 C181.354766,143.943453 181.939141,143.817625 181.939141,143.817625 Z M183.022938,143.633594 L183.022938,147.732934 C183.022938,147.744542 182.661673,147.808975 181.939141,147.926235 L181.939141,147.926235 L181.978851,143.818528 C182.674909,143.695239 183.022938,143.633594 183.022938,143.633594 L183.022938,143.633594 Z M184.163043,143.442927 C184.240744,144.144346 184.051928,147.566643 184.051928,147.566643 C184.051928,147.57825 183.817298,147.62182 183.348036,147.697352 L183.348036,147.697352 L183.101686,143.633594 C183.809258,143.506482 184.163043,143.442927 184.163043,143.442927 Z M184.95044,143.28934 C184.95044,145.138531 184.888393,147.426535 184.888393,147.426535 C184.888393,147.438142 184.699039,147.484845 184.320331,147.566643 L184.320331,147.566643 L184.320331,143.397997 C184.740404,143.325559 184.95044,143.28934 184.95044,143.28934 Z M201.902507,143.327246 C201.902507,145.176437 201.835341,147.487164 201.835341,147.487164 C201.835341,147.498771 201.644617,147.525264 201.263169,147.566643 L201.263169,147.566643 L201.263169,143.397997 C201.689394,143.35083 201.902507,143.327246 201.902507,143.327246 Z M190.74954,142.071539 C190.74954,143.92073 190.58641,146.272566 190.58641,146.272566 C190.58641,146.284173 188.722222,146.668829 184.993846,147.426535 L184.993846,147.426535 L185.093121,143.257837 C188.635525,142.514903 190.514073,142.120923 190.728764,142.075897 Z M192.408749,74.6679147 L190.007063,121.723063 L190.465332,75.0569931 L192.408749,74.6679147 Z M184.880611,91.1104652 L184.880611,96.5630662 C182.579926,96.5630662 178.573927,97.2526762 172.862613,98.6318961 L172.862613,98.6318961 L173.039136,93.2471543 C177.2179,91.8226949 181.165059,91.1104652 184.880611,91.1104652 L184.880611,91.1104652 Z" id="形状结合" fill="#FFC594"></path>
                        </g>
                        <path d="M105.932015,3.32617431e-11 C122.773038,3.32617431e-11 139.072389,5.9857859 154.830069,17.9573577 C171.988001,31.4341886 183.974287,46.4666528 190.788925,63.0547504 C154.98608,150.085328 131.706379,205.451638 120.949822,229.153683 C98.0849882,198.899444 66.660613,169.999307 26.6766962,142.453272 L105.932015,3.32617431e-11 Z M60.7793901,95.6671374 L35.326809,140.772742 C61.2988937,156.912188 89.4784088,181.807287 119.865354,215.458038 C124.276729,205.737585 130.374905,191.634283 138.159882,173.14813 C131.780718,157.452886 122.634036,142.076043 104.166187,124.330951 C92.7203358,114.024082 78.2580703,104.469478 60.7793901,95.6671374 Z M87.3746962,48.53 L64.2623794,89.4879878 C79.1799402,96.5776312 127.105,124.013759 142.157167,163.631157 C148.676977,148.046008 156.231805,129.778148 164.81813,108.83013 C157.097726,96.7630924 141.621415,83.6089692 134.995036,77.2440742 C119.511533,64.2602645 103.630932,54.686564 87.3532332,48.5229728 L87.3746962,48.53 Z M110.871348,6.89082208 L91.1879568,41.772138 C102.942758,48.0156828 135.169134,60.7099646 167.809981,101.522922 C172.341423,90.4498883 177.145797,78.666247 182.222369,66.1753474 C178.694817,51.6928497 168.352075,37.7131854 151.194143,24.2363545 C134.883904,12.6726662 121.442972,6.89082208 110.871348,6.89082208 L110.871348,6.89082208 Z" id="形状结合" fill="#FFB257"></path>
                        <path d="M10.2008704,150.670721 L26.6766962,142.453272 C67.5730185,168.615505 98.9958921,197.514974 120.945317,229.15168 C92.6124232,199.160038 55.6976077,172.999718 10.2008704,150.670721 Z" id="路径-411" fill="#FFE1BB"></path>
                    </g>
                    <g id="飞舞的纸张" transform="translate(65.359447, 72.732719)">
                        <g id="编组-39" transform="translate(245.807355, 30.794558)">
                            <path d="M2.08742394e-14,4.97508421 L15.1684619,1.16330572e-13 C17.2416079,7.0377741 19.4596351,12.2370096 21.8225435,15.5977065 C25.7082616,21.1242522 30.639049,26.1419943 33.7757505,29.1556241 C23.7379666,30.5115593 15.5773381,29.8040609 8.24490535,22.3224484 C3.38865594,17.3673977 0.640354156,11.5849429 2.08742394e-14,4.97508421 Z" id="路径-396" fill="#FFF9F0"></path>
                            <path d="M8.73364869,22.7787314 C19.8548649,24.2974815 26.9342318,23.3564991 29.9717494,19.9557843 C31.2734256,24.2269974 32.541426,27.2936107 33.7757505,29.1556241 C28.6154952,29.9264276 23.987393,29.8778891 19.8914438,29.0100086 C15.7954946,28.142128 12.0762296,26.0650356 8.73364869,22.7787314 Z" id="路径-397" fill="#FFC594"></path>
                        </g>
                        <g id="编组-40" transform="translate(236.904644, 126.828572)">
                            <polygon id="路径-399" fill="#FFB244" points="41.0425544 42.4678161 26.8687928 62.7123495 12.6950312 37.5960833 38.867083 37.2814407"></polygon>
                            <mask id="mask-10" fill="white">
                                <use xlink:href="#path-9"></use>
                            </mask>
                            <use id="路径-399" fill="#F9FCFF" xlink:href="#path-9"></use>
                            <polygon id="路径-400" fill="#EDEDED" mask="url(#mask-10)" points="16.0750449 57.002253 39.518331 42.4678161 40.7562758 42.9621739 41.7634764 41.4494811 37.8916456 40.4922298 12.6950312 56.0935817"></polygon>
                            <path d="M-1.78922052e-14,15.5847656 C14.4168012,6.84166315 22.5618404,1.64674129 24.4351174,4.17596924e-14 C26.2023805,4.26801972 31.2301184,18.221166 39.518331,41.8594388 L12.3528084,57.3423932 L-1.78922052e-14,15.5847656 Z" id="路径-398" fill="#FFF6E9"></path>
                            <path d="M25.8212222,0.68820252 C24.8971523,0.22940084 24.4351174,0 24.4351174,0 C26.2023805,4.26801972 31.2301184,18.221166 39.518331,41.8594388 L41.0425544,42.4678161 L25.8212222,0.68820252 Z" id="路径-398" fill="#FFCE87"></path>
                        </g>
                        <polygon id="路径-401" fill="#EDEDED" points="276.924116 169.113752 259.661358 185.538223 260.203869 185.696261"></polygon>
                        <polygon id="路径-401" fill="#EDEDED" points="267.199251 177.244752 257.096814 184.773421 257.51368 184.897946"></polygon>
                        <g id="编组-41" transform="translate(218.393301, 52.592078)">
                            <mask id="mask-12" fill="white">
                                <use xlink:href="#path-11"></use>
                            </mask>
                            <use id="路径-402" fill="#FFF9F0" xlink:href="#path-11"></use>
                            <polygon id="路径-403" fill="#FFC594" mask="url(#mask-12)" points="11.556023 2.68455165e-14 1.4910171e-15 19.2555103 11.9948673 27.8897328 20.4298395 9.59916058"></polygon>
                        </g>
                        <path d="M102.368052,1.55889795 C106.296612,3.85118864 111.15959,4.7461569 116.956985,4.24380271 C118.950178,6.28899349 121.361723,10.308899 124.19162,16.3035193 C120.836551,16.3035193 115.993518,16.9859353 109.662519,18.3507672 C109.40783,13.4858142 106.976341,7.88852448 102.368052,1.55889795 Z" id="路径-404" fill="#FFE7C7"></path>
                        <path d="M1.64389088,74.8562679 L15.4258678,68.7263748 C18.360084,71.3378858 22.3149411,73.7876566 27.2904392,76.075687 C34.7536863,79.5077327 42.3908427,87.4668962 43.8336089,89.8389146 C30.7498739,93.6236884 16.5796705,85.552179 13.618722,92.4901626 C9.7708602,86.0725135 5.77924982,80.1945486 1.64389088,74.8562679 Z" id="路径-407" fill="#FFF9F0"></path>
                        <path d="M191.958332,136.558027 L186.304852,150.21331 C189.560461,150.089502 191.85221,150.831389 193.180098,152.43897 C195.171929,154.850342 199.045973,156.213626 200.525845,156.213626 C201.030387,152.91253 202.201441,146.139272 204.039007,135.893852 C202.120855,136.259086 200.456511,136.480478 199.045973,136.558027 C195.850937,136.558027 193.48839,136.558027 191.958332,136.558027 Z" id="路径-408" fill="#FFDFB5"></path>
                    </g>
                    <g id="小朋友" transform="translate(98.539171, 234.944700)">
                        <polygon id="路径-362" fill="#FFBCA2" points="20.2173367 71.1829488 18.1496672 79.2165192 20.4654566 79.8529786 25.0175494 71.1829488"></polygon>
                        <path d="M14.6521178,27.8837244 C15.506266,29.9791209 20.4607478,33.8049875 27.7365684,32.7976444 C33.825729,31.9545954 36.2175066,25.8591904 36.7988284,22.0589294 C37.1711975,21.7287853 37.6756943,20.2336529 37.6756943,19.7214016 C37.6756943,19.4712103 37.6989404,18.3873735 37.3462152,17.7154592 C36.9934901,17.0435448 36.3348435,17.6105888 36.2623015,17.3963819 C34.7034423,12.7932747 30.0130256,5.53856763 21.9623272,7.68786071 C11.8892964,10.3770554 11.2543527,18.6758172 12.5538259,22.3191245 C11.4685621,21.4491813 8.47433679,20.5290824 8.03189344,22.8453757 C7.27783778,27.6441873 12.5538259,27.8837244 14.6521178,27.8837244 Z" id="路径-351" fill="#FFBCA2"></path>
                        <path d="M24.4412011,10.2896191 C24.0440331,15.4575208 21.1096519,19.2229186 15.6380576,21.5858126 C14.0490654,22.3283485 14.0490654,24.4550684 14.5170602,25.1766581 C13.4118164,24.3507854 12.6405983,23.2682407 12.2034062,21.9290241 C11.0303453,17.6183184 12.0617526,13.7385167 15.2976279,10.2896191 C18.7093535,7.34804417 22.7599292,6.35121292 27.4493548,7.29912533 C33.1221587,9.29278784 36.0598076,12.65854 36.2623015,17.3963819 C33.2041941,12.9569124 29.2638273,10.5879915 24.4412011,10.2896191 Z" id="路径-352" fill="#5E120F"></path>
                        <path d="M17.7592114,9.00747625 C16.512506,8.02383389 15.1023739,8.19274929 13.5288151,9.51422246 C11.9552562,10.8356956 11.1445263,12.1809976 11.0966254,13.5501283 C11.1073839,14.9439847 11.623856,15.6409128 12.6460416,15.6409128 C13.6682273,15.6409128 15.3726172,13.4297673 17.7592114,9.00747625 Z" id="路径-353" fill="#5E120F"></path>
                        <path d="M4.55267104,5.01528852 C5.00366357,4.23239734 7.35535662,0.329951928 12.557284,0.842655332 C17.5640214,1.58797773 16.0105707,8.16155407 14.8772779,9.07934697 C14.1217494,9.6912089 13.0744039,10.770807 11.7352416,12.3181413 C8.8823668,13.6534505 6.69450929,13.8078572 5.17166909,12.7813615 C3.09940888,11.6964788 2.93966435,7.48281778 4.55267104,5.01528852 Z" id="路径-354" fill="#5E120F"></path>
                        <path d="M24.2579223,24.4761108 C27.1146246,24.9013779 29.2841596,25.0009527 30.7665273,24.7748354 C29.8576261,26.5254831 29.0080887,27.5587688 27.0303496,27.3171179 C25.7118569,27.1560173 24.7877145,26.2090149 24.2579223,24.4761108 Z" id="路径-355" fill="#E6561A"></path>
                        <path d="M22.2216839,44.1543707 C8.88677802,49.0053238 2.21932507,54.6831745 2.21932507,61.1879228 C0.710637417,61.7313731 0.135890114,62.8614472 0.495083164,64.5781453 C1.1546177,65.9987129 2.43263797,66.7783372 4.32914397,66.9170182 C5.46352545,67.1194349 6.63524148,67.8683764 7.84429207,69.1638429 C9.01479137,70.4466263 10.7025312,71.088018 12.9075116,71.088018 C15.3279822,73.8796381 21.4395793,74.8792944 27.3427304,73.8796381 C30.4776808,74.4315437 34.736126,75.7667248 37.8242,73.1932151 C37.8242,63.3763285 37.0269312,53.0916018 32.1848308,46.704436 C28.9567639,42.4463255 25.6357149,41.5963037 22.2216839,44.1543707 Z" id="路径-361" fill="#608595"></path>
                        <path d="M21.672424,44.2423835 C21.376117,39.8624975 20.9075458,36.9183923 20.2667106,35.4100681 C19.3054577,33.1475818 22.1580935,30.4922567 24.3975907,31.2125012 C25.8905889,31.6926642 28.0135678,32.8501703 30.7665273,34.6850194 C31.5886938,39.1620783 31.7971267,42.7780977 31.3918257,45.5330778 C26.9693396,45.7408111 23.7295391,45.3105797 21.672424,44.2423835 Z" id="路径-356" fill="#F8B14C"></path>
                        <g id="编组-27" transform="translate(41.252124, 41.044099) rotate(13.000000) translate(-41.252124, -41.044099) translate(32.275549, 27.188574)" fill="#F1C56C">
                            <g id="编组-26" transform="translate(10.500183, 0.727739)">
                                <path d="M2.00533176,2.61456156 C2.14280683,1.15643003 2.46382482,0.528252309 2.96838571,0.730028387 C3.42453334,1.06955667 3.10351536,1.6977344 2.00533176,2.61456156 Z" id="路径-368"></path>
                                <path d="M2.41278754,2.91571213 C2.41278754,2.91571213 2.73067258,1.81362531 3.18230128,2.04980259 C3.70791953,2.46912487 2.41278754,2.91571213 2.41278754,2.91571213 Z" id="路径-368" transform="translate(2.860305, 2.466167) rotate(28.000000) translate(-2.860305, -2.466167) "></path>
                                <path d="M1.22601048,2.44183721 C1.22601048,2.44183721 1.32956112,1.33374889 1.88932778,1.61130144 C2.53752902,1.94102402 1.22601048,2.44183721 1.22601048,2.44183721 Z" id="路径-368" transform="translate(1.647638, 2.004260) rotate(-62.000000) translate(-1.647638, -2.004260) "></path>
                            </g>
                            <g id="编组-26" transform="translate(4.741016, 5.936342) scale(-1, 1) rotate(25.000000) translate(-4.741016, -5.936342) translate(2.292859, 3.491249)">
                                <path d="M2.00533176,2.61456156 C2.14280683,1.15643003 2.46382482,0.528252309 2.96838571,0.730028387 C3.42453334,1.06955667 3.10351536,1.6977344 2.00533176,2.61456156 Z" id="路径-368"></path>
                                <path d="M2.41278754,2.91571213 C2.41278754,2.91571213 2.73067258,1.81362531 3.18230128,2.04980259 C3.70791953,2.46912487 2.41278754,2.91571213 2.41278754,2.91571213 Z" id="路径-368" transform="translate(2.860305, 2.466167) rotate(28.000000) translate(-2.860305, -2.466167) "></path>
                                <path d="M1.22601048,2.44183721 C1.22601048,2.44183721 1.32956112,1.33374889 1.88932778,1.61130144 C2.53752902,1.94102402 1.22601048,2.44183721 1.22601048,2.44183721 Z" id="路径-368" transform="translate(1.647638, 2.004260) rotate(-62.000000) translate(-1.647638, -2.004260) "></path>
                            </g>
                            <g id="编组-26" transform="translate(12.073998, 19.618592)">
                                <path d="M2.00533176,2.61456156 C2.14280683,1.15643003 2.46382482,0.528252309 2.96838571,0.730028387 C3.42453334,1.06955667 3.10351536,1.6977344 2.00533176,2.61456156 Z" id="路径-368"></path>
                                <path d="M2.41278754,2.91571213 C2.41278754,2.91571213 2.73067258,1.81362531 3.18230128,2.04980259 C3.70791953,2.46912487 2.41278754,2.91571213 2.41278754,2.91571213 Z" id="路径-368" transform="translate(2.860305, 2.466167) rotate(28.000000) translate(-2.860305, -2.466167) "></path>
                                <path d="M1.22601048,2.44183721 C1.22601048,2.44183721 1.32956112,1.33374889 1.88932778,1.61130144 C2.53752902,1.94102402 1.22601048,2.44183721 1.22601048,2.44183721 Z" id="路径-368" transform="translate(1.647638, 2.004260) rotate(-62.000000) translate(-1.647638, -2.004260) "></path>
                            </g>
                            <g id="编组-26" transform="translate(6.521836, 23.666982) scale(-1, 1) rotate(25.000000) translate(-6.521836, -23.666982) translate(4.073679, 21.221889)">
                                <path d="M2.00533176,2.61456156 C2.14280683,1.15643003 2.46382482,0.528252309 2.96838571,0.730028387 C3.42453334,1.06955667 3.10351536,1.6977344 2.00533176,2.61456156 Z" id="路径-368"></path>
                                <path d="M2.41278754,2.91571213 C2.41278754,2.91571213 2.73067258,1.81362531 3.18230128,2.04980259 C3.70791953,2.46912487 2.41278754,2.91571213 2.41278754,2.91571213 Z" id="路径-368" transform="translate(2.860305, 2.466167) rotate(28.000000) translate(-2.860305, -2.466167) "></path>
                                <path d="M1.22601048,2.44183721 C1.22601048,2.44183721 1.32956112,1.33374889 1.88932778,1.61130144 C2.53752902,1.94102402 1.22601048,2.44183721 1.22601048,2.44183721 Z" id="路径-368" transform="translate(1.647638, 2.004260) rotate(-62.000000) translate(-1.647638, -2.004260) "></path>
                            </g>
                        </g>
                        <g id="编组-27" transform="translate(45.090115, 40.098572) rotate(11.000000) translate(-45.090115, -40.098572) translate(33.665383, 23.797954)">
                            <g id="编组-25">
                                <path d="M4.6159733,1.56414893 L1.35211304,28.1002973 C6.55817024,29.3686807 11.7687428,30.5781201 16.9838308,31.7286156 C18.0318231,31.9598121 18.0395682,32.0141767 19.0933616,32.0141767 C19.6595673,32.0141767 20.2251251,31.9189897 20.7900348,31.7286156 L22.0334101,8.18023934 L21.0182687,5.47332022 L6.63761091,0 C6.3957555,0.57075603 6.08676878,1.00163603 5.71065078,1.29264001 C5.41288958,1.52301901 5.04799708,1.61352199 4.6159733,1.56414893 Z" id="路径-359" fill="#FF8C90" transform="translate(11.692762, 16.007088) scale(-1, 1) translate(-11.692762, -16.007088) "></path>
                                <polygon id="路径-359" fill="#FF6368" transform="translate(10.023729, 15.864308) scale(-1, 1) translate(-10.023729, -15.864308) " points="3.29954582 0 -9.11907362e-15 27.2900497 17.4519697 31.7286156 20.0474581 5.47332022"></polygon>
                                <path d="M14.792187,2.45008338 L15.4641252,3.03196845 L18.1871897,25.5180081 L17.6987825,26.2524465 L4.7170455,29.5490338 L4.00908394,29.146759 L1.69392527,7.32294088 L2.2331182,6.47116037 L14.792187,2.45008338 Z M14.4707284,3.62639653 L2.79000592,7.42036328 L5.09256529,28.3586668 L17.0887262,25.3182857 L14.4707284,3.62639653 Z" id="形状结合" fill="#FFECC9"></path>
                                <path d="M17.3410227,1.64257737 C18.2829499,9.60821193 19.3662765,18.0636327 20.5910025,27.0088396 C19.5940898,18.1071097 18.5825425,9.6861751 17.5563608,1.74603565 C17.5100368,1.47527138 17.3025367,1.3689546 17.3410227,1.64257737 Z" id="路径-369" fill="#FFC2C4"></path>
                                <path d="M18.2389493,4.71248004 C19.1808765,12.6781146 19.9648942,19.2476101 20.5910025,24.4209666 C20.2551274,20.5783041 19.9600915,17.5032701 19.7058947,15.1958647 C19.3597717,12.0540225 18.9425693,8.59404709 18.4542874,4.81593832 C18.4079634,4.54517404 18.2004633,4.43885726 18.2389493,4.71248004 Z" id="路径-369" fill="#FFC2C4"></path>
                                <path d="M18.4171369,2.87869606 C19.3590641,10.8443306 20.3346537,18.8877118 21.3439055,27.0088396 C20.5068173,19.0208671 19.5751824,11.0568112 18.5490006,3.11667172 C18.5026766,2.84590744 18.378651,2.60507328 18.4171369,2.87869606 Z" id="路径-369" fill="#FFC2C4"></path>
                            </g>
                            <g id="编组-26" transform="translate(10.441894, 3.876215)" fill="#F1C56C">
                                <path d="M2.00533176,2.61456156 C2.14280683,1.15643003 2.46382482,0.528252309 2.96838571,0.730028387 C3.42453334,1.06955667 3.10351536,1.6977344 2.00533176,2.61456156 Z" id="路径-368"></path>
                                <path d="M2.41278754,2.91571213 C2.41278754,2.91571213 2.73067258,1.81362531 3.18230128,2.04980259 C3.70791953,2.46912487 2.41278754,2.91571213 2.41278754,2.91571213 Z" id="路径-368" transform="translate(2.860305, 2.466167) rotate(28.000000) translate(-2.860305, -2.466167) "></path>
                                <path d="M1.22601048,2.44183721 C1.22601048,2.44183721 1.32956112,1.33374889 1.88932778,1.61130144 C2.53752902,1.94102402 1.22601048,2.44183721 1.22601048,2.44183721 Z" id="路径-368" transform="translate(1.647638, 2.004260) rotate(-62.000000) translate(-1.647638, -2.004260) "></path>
                            </g>
                            <g id="编组-26" transform="translate(4.682727, 9.084817) scale(-1, 1) rotate(25.000000) translate(-4.682727, -9.084817) translate(2.234570, 6.639724)" fill="#F1C56C">
                                <path d="M2.00533176,2.61456156 C2.14280683,1.15643003 2.46382482,0.528252309 2.96838571,0.730028387 C3.42453334,1.06955667 3.10351536,1.6977344 2.00533176,2.61456156 Z" id="路径-368"></path>
                                <path d="M2.41278754,2.91571213 C2.41278754,2.91571213 2.73067258,1.81362531 3.18230128,2.04980259 C3.70791953,2.46912487 2.41278754,2.91571213 2.41278754,2.91571213 Z" id="路径-368" transform="translate(2.860305, 2.466167) rotate(28.000000) translate(-2.860305, -2.466167) "></path>
                                <path d="M1.22601048,2.44183721 C1.22601048,2.44183721 1.32956112,1.33374889 1.88932778,1.61130144 C2.53752902,1.94102402 1.22601048,2.44183721 1.22601048,2.44183721 Z" id="路径-368" transform="translate(1.647638, 2.004260) rotate(-62.000000) translate(-1.647638, -2.004260) "></path>
                            </g>
                            <g id="编组-26" transform="translate(12.015709, 22.767067)" fill="#F1C56C">
                                <path d="M2.00533176,2.61456156 C2.14280683,1.15643003 2.46382482,0.528252309 2.96838571,0.730028387 C3.42453334,1.06955667 3.10351536,1.6977344 2.00533176,2.61456156 Z" id="路径-368"></path>
                                <path d="M2.41278754,2.91571213 C2.41278754,2.91571213 2.73067258,1.81362531 3.18230128,2.04980259 C3.70791953,2.46912487 2.41278754,2.91571213 2.41278754,2.91571213 Z" id="路径-368" transform="translate(2.860305, 2.466167) rotate(28.000000) translate(-2.860305, -2.466167) "></path>
                                <path d="M1.22601048,2.44183721 C1.22601048,2.44183721 1.32956112,1.33374889 1.88932778,1.61130144 C2.53752902,1.94102402 1.22601048,2.44183721 1.22601048,2.44183721 Z" id="路径-368" transform="translate(1.647638, 2.004260) rotate(-62.000000) translate(-1.647638, -2.004260) "></path>
                            </g>
                            <g id="编组-26" transform="translate(6.463547, 26.815457) scale(-1, 1) rotate(25.000000) translate(-6.463547, -26.815457) translate(4.015390, 24.370365)" fill="#F1C56C">
                                <path d="M2.00533176,2.61456156 C2.14280683,1.15643003 2.46382482,0.528252309 2.96838571,0.730028387 C3.42453334,1.06955667 3.10351536,1.6977344 2.00533176,2.61456156 Z" id="路径-368"></path>
                                <path d="M2.41278754,2.91571213 C2.41278754,2.91571213 2.73067258,1.81362531 3.18230128,2.04980259 C3.70791953,2.46912487 2.41278754,2.91571213 2.41278754,2.91571213 Z" id="路径-368" transform="translate(2.860305, 2.466167) rotate(28.000000) translate(-2.860305, -2.466167) "></path>
                                <path d="M1.22601048,2.44183721 C1.22601048,2.44183721 1.32956112,1.33374889 1.88932778,1.61130144 C2.53752902,1.94102402 1.22601048,2.44183721 1.22601048,2.44183721 Z" id="路径-368" transform="translate(1.647638, 2.004260) rotate(-62.000000) translate(-1.647638, -2.004260) "></path>
                            </g>
                        </g>
                        <g id="编组-27" transform="translate(28.860448, 22.911962)">
                            <g id="编组-25">
                                <path d="M4.6159733,1.56414893 L1.35211304,28.1002973 C6.55817024,29.3686807 11.7687428,30.5781201 16.9838308,31.7286156 C18.0318231,31.9598121 18.0395682,32.0141767 19.0933616,32.0141767 C19.6595673,32.0141767 20.2251251,31.9189897 20.7900348,31.7286156 L22.0334101,8.18023934 L21.0182687,5.47332022 L6.63761091,0 C6.3957555,0.57075603 6.08676878,1.00163603 5.71065078,1.29264001 C5.41288958,1.52301901 5.04799708,1.61352199 4.6159733,1.56414893 Z" id="路径-359" fill="#FF8C90" transform="translate(11.692762, 16.007088) scale(-1, 1) translate(-11.692762, -16.007088) "></path>
                                <polygon id="路径-359" fill="#FF6368" transform="translate(10.023729, 15.864308) scale(-1, 1) translate(-10.023729, -15.864308) " points="3.29954582 0 -9.11907362e-15 27.2900497 17.4519697 31.7286156 20.0474581 5.47332022"></polygon>
                                <path d="M14.792187,2.45008338 L15.4641252,3.03196845 L18.1871897,25.5180081 L17.6987825,26.2524465 L4.7170455,29.5490338 L4.00908394,29.146759 L1.69392527,7.32294088 L2.2331182,6.47116037 L14.792187,2.45008338 Z M14.4707284,3.62639653 L2.79000592,7.42036328 L5.09256529,28.3586668 L17.0887262,25.3182857 L14.4707284,3.62639653 Z" id="形状结合" fill="#FFECC9"></path>
                                <path d="M17.3410227,1.64257737 C18.2829499,9.60821193 19.3662765,18.0636327 20.5910025,27.0088396 C19.5940898,18.1071097 18.5825425,9.6861751 17.5563608,1.74603565 C17.5100368,1.47527138 17.3025367,1.3689546 17.3410227,1.64257737 Z" id="路径-369" fill="#FFC2C4"></path>
                                <path d="M18.2389493,4.71248004 C19.1808765,12.6781146 19.9648942,19.2476101 20.5910025,24.4209666 C20.2551274,20.5783041 19.9600915,17.5032701 19.7058947,15.1958647 C19.3597717,12.0540225 18.9425693,8.59404709 18.4542874,4.81593832 C18.4079634,4.54517404 18.2004633,4.43885726 18.2389493,4.71248004 Z" id="路径-369" fill="#FFC2C4"></path>
                                <path d="M18.4171369,2.87869606 C19.3590641,10.8443306 20.3346537,18.8877118 21.3439055,27.0088396 C20.5068173,19.0208671 19.5751824,11.0568112 18.5490006,3.11667172 C18.5026766,2.84590744 18.378651,2.60507328 18.4171369,2.87869606 Z" id="路径-369" fill="#FFC2C4"></path>
                            </g>
                            <g id="编组-26" transform="translate(10.441894, 3.876215)" fill="#F1C56C">
                                <path d="M2.00533176,2.61456156 C2.14280683,1.15643003 2.46382482,0.528252309 2.96838571,0.730028387 C3.42453334,1.06955667 3.10351536,1.6977344 2.00533176,2.61456156 Z" id="路径-368"></path>
                                <path d="M2.41278754,2.91571213 C2.41278754,2.91571213 2.73067258,1.81362531 3.18230128,2.04980259 C3.70791953,2.46912487 2.41278754,2.91571213 2.41278754,2.91571213 Z" id="路径-368" transform="translate(2.860305, 2.466167) rotate(28.000000) translate(-2.860305, -2.466167) "></path>
                                <path d="M1.22601048,2.44183721 C1.22601048,2.44183721 1.32956112,1.33374889 1.88932778,1.61130144 C2.53752902,1.94102402 1.22601048,2.44183721 1.22601048,2.44183721 Z" id="路径-368" transform="translate(1.647638, 2.004260) rotate(-62.000000) translate(-1.647638, -2.004260) "></path>
                            </g>
                            <g id="编组-26" transform="translate(4.682727, 9.084817) scale(-1, 1) rotate(25.000000) translate(-4.682727, -9.084817) translate(2.234570, 6.639724)" fill="#F1C56C">
                                <path d="M2.00533176,2.61456156 C2.14280683,1.15643003 2.46382482,0.528252309 2.96838571,0.730028387 C3.42453334,1.06955667 3.10351536,1.6977344 2.00533176,2.61456156 Z" id="路径-368"></path>
                                <path d="M2.41278754,2.91571213 C2.41278754,2.91571213 2.73067258,1.81362531 3.18230128,2.04980259 C3.70791953,2.46912487 2.41278754,2.91571213 2.41278754,2.91571213 Z" id="路径-368" transform="translate(2.860305, 2.466167) rotate(28.000000) translate(-2.860305, -2.466167) "></path>
                                <path d="M1.22601048,2.44183721 C1.22601048,2.44183721 1.32956112,1.33374889 1.88932778,1.61130144 C2.53752902,1.94102402 1.22601048,2.44183721 1.22601048,2.44183721 Z" id="路径-368" transform="translate(1.647638, 2.004260) rotate(-62.000000) translate(-1.647638, -2.004260) "></path>
                            </g>
                            <g id="编组-26" transform="translate(12.015709, 22.767067)" fill="#F1C56C">
                                <path d="M2.00533176,2.61456156 C2.14280683,1.15643003 2.46382482,0.528252309 2.96838571,0.730028387 C3.42453334,1.06955667 3.10351536,1.6977344 2.00533176,2.61456156 Z" id="路径-368"></path>
                                <path d="M2.41278754,2.91571213 C2.41278754,2.91571213 2.73067258,1.81362531 3.18230128,2.04980259 C3.70791953,2.46912487 2.41278754,2.91571213 2.41278754,2.91571213 Z" id="路径-368" transform="translate(2.860305, 2.466167) rotate(28.000000) translate(-2.860305, -2.466167) "></path>
                                <path d="M1.22601048,2.44183721 C1.22601048,2.44183721 1.32956112,1.33374889 1.88932778,1.61130144 C2.53752902,1.94102402 1.22601048,2.44183721 1.22601048,2.44183721 Z" id="路径-368" transform="translate(1.647638, 2.004260) rotate(-62.000000) translate(-1.647638, -2.004260) "></path>
                            </g>
                            <g id="编组-26" transform="translate(6.463547, 26.815457) scale(-1, 1) rotate(25.000000) translate(-6.463547, -26.815457) translate(4.015390, 24.370365)" fill="#F1C56C">
                                <path d="M2.00533176,2.61456156 C2.14280683,1.15643003 2.46382482,0.528252309 2.96838571,0.730028387 C3.42453334,1.06955667 3.10351536,1.6977344 2.00533176,2.61456156 Z" id="路径-368"></path>
                                <path d="M2.41278754,2.91571213 C2.41278754,2.91571213 2.73067258,1.81362531 3.18230128,2.04980259 C3.70791953,2.46912487 2.41278754,2.91571213 2.41278754,2.91571213 Z" id="路径-368" transform="translate(2.860305, 2.466167) rotate(28.000000) translate(-2.860305, -2.466167) "></path>
                                <path d="M1.22601048,2.44183721 C1.22601048,2.44183721 1.32956112,1.33374889 1.88932778,1.61130144 C2.53752902,1.94102402 1.22601048,2.44183721 1.22601048,2.44183721 Z" id="路径-368" transform="translate(1.647638, 2.004260) rotate(-62.000000) translate(-1.647638, -2.004260) "></path>
                            </g>
                        </g>
                        <path d="M20.0749964,34.6486997 C20.0741115,35.7904641 23.7296992,39.8967033 26.3793643,40.1821743 C27.1598359,40.0385231 29.3549511,38.7054319 28.5135819,37.9669442 C26.2027693,35.9386946 20.5881504,34.1160714 20.0749964,34.6486997 Z" id="路径-409" fill="#EBA137"></path>
                        <path d="M26.9561928,38.1729591 C31.6104974,40.5078606 35.1837697,41.9994983 37.6760096,42.6478721 C38.0822505,43.0880191 38.4433761,43.4651364 38.7593866,43.7792241 C39.1892915,44.2065132 39.7335999,44.525123 40.3923119,44.7350534 C40.5246639,44.6712057 40.3218213,44.3933793 39.7837842,43.9015741 C39.998666,43.9861039 40.4796611,44.5669414 41.1860875,44.9558061 C41.287861,45.0318084 41.4814803,44.950649 41.4145136,44.7992375 C41.2881299,44.5134845 40.4549898,43.6793082 40.3923119,43.5161818 C40.5203573,43.4626631 41.1860875,44.2000105 41.8395704,44.6814867 C42.0051461,44.7844664 42.1659477,44.6120657 42.10373,44.4750265 C41.7199061,43.895665 41.3187197,43.484607 40.8617475,42.9522897 C40.9597988,42.9522897 41.7608268,43.484607 42.4190166,43.7792241 C42.5625594,43.8434763 42.7575788,43.6830364 42.6090194,43.5161818 C41.9337073,42.7937034 41.3715996,42.4852021 40.6455689,41.884534 C41.3237867,41.6131452 41.4145136,41.3851382 41.4145136,40.8425527 C40.7322133,41.0015715 40.2437101,41.2454323 39.5268289,41.2454323 C39.0489081,41.2454323 35.6721476,39.3802206 29.3965475,35.6497973 L26.9561928,38.1729591 Z" id="路径-358" fill="#FB9D76"></path>
                        <path d="M26.4357503,39.2999266 C25.0139952,39.6420359 20.4252063,35.7210915 20.0744199,34.6486997 C20.0432315,32.1283244 22.3851973,31.0139484 23.6550621,31.0922012 C24.8682271,31.1669599 29.5598942,33.4649467 30.0264001,34.2121908 C30.3074179,35.817896 27.6242038,39.0139554 26.4357503,39.2999266 Z" id="路径-357" fill="#FCBF66"></path>
                        <path d="M18.0811019,75.8191866 L23.4661159,76.3022962 L21.7453321,79.8311676 C21.5599413,80.3222842 22.8083437,80.5678425 25.4905392,80.5678425 C26.362298,80.7011428 26.7266141,81.36489 26.5834876,82.5590841 L16.1907756,82.4253354 L18.0811019,75.8191866 Z" id="路径-363" fill="#B92C3F"></path>
                        <path d="M27.8979893,20.090112 L28.4923097,20.1724723 C28.4134842,20.7412855 28.5315345,21.0649209 28.825728,21.2165568 C29.5523256,21.5910664 29.7014007,22.0928983 29.3357987,22.6320334 C29.1928169,22.8428816 28.954583,23.0571391 28.6194299,23.2822345 L28.3498667,23.4532043 L28.0404323,22.9391514 C28.4521088,22.6913425 28.7194536,22.4718837 28.8392107,22.2952838 C28.9964161,22.0634608 28.9669812,21.9643741 28.5508371,21.7498813 C28.0596115,21.4966893 27.8385478,21.0121427 27.873085,20.3476369 L27.8979893,20.090112 Z" id="路径" fill="#C2421F" fill-rule="nonzero"></path>
                        <path d="M19.0981213,20.6993721 C21.1008457,19.172594 22.9671743,19.172594 24.6335037,20.7156582 C24.7452865,20.8191719 24.7633976,21.0079614 24.673956,21.1373313 C24.5845144,21.2667011 24.4213899,21.2876617 24.3096071,21.184148 C22.8267696,19.811002 21.205871,19.811002 19.3833079,21.200434 C19.2637534,21.2915765 19.1029941,21.2532955 19.024242,21.1149311 C18.9454899,20.9765667 18.9785668,20.7905146 19.0981213,20.6993721 Z" id="路径" fill="#5E120F" fill-rule="nonzero"></path>
                        <path d="M31.4189171,18.7324827 C32.6823237,18.6563159 33.9531128,19.6841567 33.9531128,20.3520013 C33.9531128,20.5176868 33.8370576,20.6520013 33.6938962,20.6520013 C33.5507349,20.6520013 33.4346796,20.5176868 33.4346796,20.3520013 C33.4346796,20.074726 32.4417605,19.2716322 31.4458863,19.3316703 C31.0680931,19.3544463 30.6353305,19.6369078 30.2153913,20.0148147 C30.1023752,20.1165188 29.9395184,20.0929342 29.8516404,19.9621369 C29.7637624,19.8313396 29.7841408,19.64286 29.8971569,19.5411559 C30.4009273,19.0878085 30.8971308,18.7639395 31.4189171,18.7324827 Z" id="路径" fill="#5E120F" fill-rule="nonzero" transform="translate(31.875079, 19.728479) scale(-1, 1) translate(-31.875079, -19.728479) "></path>
                        <path d="M29.8594512,17.176681 C31.2966236,16.2844784 32.3492437,15.8268231 33.0173114,15.8037149 C33.9007252,15.8037149 34.4805796,15.9687309 34.7568746,16.2987629 C34.0550104,16.1100863 33.475156,16.0833269 33.0173114,16.2184848 C32.5594667,16.3536428 31.6311137,16.7166636 30.2322525,17.3075472 L29.8594512,17.176681 Z" id="路径-366" fill="#5E120F"></path>
                        <path d="M18.8427461,17.176681 C20.2799186,16.2844784 21.3325386,15.8268231 22.0006063,15.8037149 C22.8840201,15.8037149 23.4638745,15.9687309 23.7401695,16.2987629 C23.0383054,16.1100863 22.458451,16.0833269 22.0006063,16.2184848 C21.5427617,16.3536428 20.6144087,16.7166636 19.2155474,17.3075472 L18.8427461,17.176681 Z" id="路径-366" fill="#5E120F" transform="translate(21.291458, 16.555631) scale(-1, 1) translate(-21.291458, -16.555631) "></path>
                        <path d="M10.4922809,25.9140352 C9.93526381,25.6756574 9.78359105,24.6464758 9.74686768,24.2972238 C9.60681409,22.9652653 11.2401022,22.3112498 11.6358521,23.5437069 C12.1479147,25.1383891 12.7775869,25.9284986 13.5248686,25.9140352 C12.56383,26.5447479 11.5529675,26.5447479 10.4922809,25.9140352 Z" id="路径-482" fill="#E87D51"></path>
                    </g>
                    <g id="搬书女" transform="translate(129.875576, 107.755760)">
                        <polygon id="路径-46" fill="#FFBCA2" points="108.628733 168.802653 99.6564593 180.027609 109.376516 185.97879 117.780019 174.59597"></polygon>
                        <polygon id="路径-46" fill="#FFBCA2" points="81.0974332 185.870108 72.1251598 197.095064 81.8452169 203.046245 90.2487197 191.663425"></polygon>
                        <polygon id="路径-52" fill="#F2D482" points="90.7478719 42.8203952 90.7478719 39.2278153 114.071838 36.2171648 114.071838 39.226423"></polygon>
                        <polygon id="路径-52" fill="#C1C970" points="85.8315745 48.9536268 85.8315745 46.4394284 110.774758 42.7170714 110.774758 45.0996364"></polygon>
                        <polygon id="路径-52" fill="#F2D071" points="93.5944025 45.2703801 93.5944025 42.370057 119.069689 38.4147679 119.069689 41.5010654"></polygon>
                        <g id="编组-3" transform="translate(110.599078, 196.313364) rotate(28.000000) translate(-110.599078, -196.313364) translate(88.479263, 185.253456)">
                            <path d="M21.8795987,1.02099142 C20.9604278,1.43600081 19.1447771,5.16343259 19.5570313,5.78092527 C20.0308002,6.49055746 22.5034801,4.70267497 23.5197004,3.09314032 L23.6923302,2.79409588 C24.1897056,1.71982596 22.9513845,0.53707572 21.8795987,1.02099142 Z M23.1961737,2.55023556 C22.5012805,3.88484178 20.1372285,5.65403548 20.0169475,5.47387324 C19.8239515,5.18479513 21.4655489,1.81468516 22.1071587,1.52499574 C22.6652873,1.27299839 23.3336262,1.83997416 23.24175,2.39608211 L23.1961737,2.55023556 Z" id="路径-25" fill="#000000" fill-rule="nonzero"></path>
                            <path d="M22.343569,3.35143711 C21.424582,3.76690042 19.6079655,7.49589248 20.0198238,8.11334833 C20.493352,8.82325926 22.966096,7.03387614 23.9827152,5.42347531 L24.1554237,5.12427648 C24.6530575,4.04962996 23.4153753,2.86688593 22.343569,3.35143711 Z M23.659277,4.88039568 C22.9640257,6.21564727 20.5998383,7.98634676 20.4798678,7.80648763 C20.2870254,7.51737944 21.9297101,4.14541949 22.5713735,3.85533094 C23.1293556,3.60307372 23.7970961,4.16976808 23.704934,4.72613572 L23.659277,4.88039568 Z" id="路径-25" fill="#000000" fill-rule="nonzero" transform="translate(22.114419, 5.756458) rotate(33.000000) translate(-22.114419, -5.756458) "></path>
                            <mask id="mask-14" fill="white">
                                <use xlink:href="#path-13"></use>
                            </mask>
                            <use id="路径-19" fill="#B92C3F" xlink:href="#path-13"></use>
                            <path d="M34.6368746,9.56274853 C35.112412,12.5936566 34.9591198,15.5224734 34.1769979,18.3491988 C35.2008239,18.4810477 38.9033973,18.9096373 42.2334522,19.2088825 C43.417352,18.713846 43.8738594,17.0567406 43.6029742,14.2375663 L34.6368746,9.56274853 Z" id="路径-21" fill="#F294A1" mask="url(#mask-14)"></path>
                            <path d="M3.27113279,9.56274853 C7.12826402,11.5842157 8.80054292,13.8595242 8.28796949,16.3886741 C7.77539606,18.917824 7.54363826,19.6243572 7.59269609,18.5082738 L1.06013425,17.0585826 L3.27113279,9.56274853 Z" id="路径-23" fill="#F294A1" mask="url(#mask-14)"></path>
                            <polygon id="路径-22" fill="#FFE8E8" mask="url(#mask-14)" points="2.0468435 14.3858155 42.9820962 19.2088825 42.1171634 22.0812811 -2.98248205e-16 16.9340049"></polygon>
                            <ellipse id="椭圆形" fill="#FFD1D1" mask="url(#mask-14)" transform="translate(10.476164, 6.094930) rotate(9.000000) translate(-10.476164, -6.094930) " cx="10.4761642" cy="6.09492951" rx="2.6497096" ry="2.64737835"></ellipse>
                            <polygon id="路径-24" fill="#000000" fill-rule="nonzero" mask="url(#mask-14)" points="25.4374526 10.4383911 25.9078926 10.4923023 26.3419355 11.4470046 27.9262591 10.8881532 28.2610237 11.2815334 27.1103869 13.3847542 26.6165122 13.3673604 26.0516129 12.1354839 24.2859621 12.7650316 23.9744812 12.3356315"></polygon>
                            <polygon id="路径-24" fill="#000000" fill-rule="nonzero" mask="url(#mask-14)" points="21.8996794 9.37365841 22.3330698 9.48469494 22.7198157 10.4626728 24.5238722 10.1376863 24.7913492 10.5797812 23.3532747 12.4234339 22.878336 12.3555659 22.3769585 11.0903226 20.1407719 11.5027697 19.9142959 11.0179009"></polygon>
                        </g>
                        <g id="编组-3" transform="translate(81.508935, 211.813369) rotate(28.000000) translate(-81.508935, -211.813369) translate(59.389120, 200.753461)">
                            <path d="M21.8795987,1.02099142 C20.9604278,1.43600081 19.1447771,5.16343259 19.5570313,5.78092527 C20.0308002,6.49055746 22.5034801,4.70267497 23.5197004,3.09314032 L23.6923302,2.79409588 C24.1897056,1.71982596 22.9513845,0.53707572 21.8795987,1.02099142 Z M23.1961737,2.55023556 C22.5012805,3.88484178 20.1372285,5.65403548 20.0169475,5.47387324 C19.8239515,5.18479513 21.4655489,1.81468516 22.1071587,1.52499574 C22.6652873,1.27299839 23.3336262,1.83997416 23.24175,2.39608211 L23.1961737,2.55023556 Z" id="路径-25" fill="#000000" fill-rule="nonzero"></path>
                            <path d="M22.343569,3.35143711 C21.424582,3.76690042 19.6079655,7.49589248 20.0198238,8.11334833 C20.493352,8.82325926 22.966096,7.03387614 23.9827152,5.42347531 L24.1554237,5.12427648 C24.6530575,4.04962996 23.4153753,2.86688593 22.343569,3.35143711 Z M23.659277,4.88039568 C22.9640257,6.21564727 20.5998383,7.98634676 20.4798678,7.80648763 C20.2870254,7.51737944 21.9297101,4.14541949 22.5713735,3.85533094 C23.1293556,3.60307372 23.7970961,4.16976808 23.704934,4.72613572 L23.659277,4.88039568 Z" id="路径-25" fill="#000000" fill-rule="nonzero" transform="translate(22.114419, 5.756458) rotate(33.000000) translate(-22.114419, -5.756458) "></path>
                            <mask id="mask-16" fill="white">
                                <use xlink:href="#path-15"></use>
                            </mask>
                            <use id="路径-19" fill="#B92C3F" xlink:href="#path-15"></use>
                            <path d="M34.6368746,9.56274853 C35.112412,12.5936566 34.9591198,15.5224734 34.1769979,18.3491988 C35.2008239,18.4810477 38.9033973,18.9096373 42.2334522,19.2088825 C43.417352,18.713846 43.8738594,17.0567406 43.6029742,14.2375663 L34.6368746,9.56274853 Z" id="路径-21" fill="#F294A1" mask="url(#mask-16)"></path>
                            <path d="M3.27113279,9.56274853 C7.12826402,11.5842157 8.80054292,13.8595242 8.28796949,16.3886741 C7.77539606,18.917824 7.54363826,19.6243572 7.59269609,18.5082738 L1.06013425,17.0585826 L3.27113279,9.56274853 Z" id="路径-23" fill="#F294A1" mask="url(#mask-16)"></path>
                            <polygon id="路径-22" fill="#FFE8E8" mask="url(#mask-16)" points="2.0468435 14.3858155 42.9820962 19.2088825 42.1171634 22.0812811 -2.98248205e-16 16.9340049"></polygon>
                            <ellipse id="椭圆形" fill="#FFD1D1" mask="url(#mask-16)" transform="translate(10.476164, 6.094930) rotate(9.000000) translate(-10.476164, -6.094930) " cx="10.4761642" cy="6.09492951" rx="2.6497096" ry="2.64737835"></ellipse>
                            <polygon id="路径-24" fill="#000000" fill-rule="nonzero" mask="url(#mask-16)" points="25.4374526 10.4383911 25.9078926 10.4923023 26.3419355 11.4470046 27.9262591 10.8881532 28.2610237 11.2815334 27.1103869 13.3847542 26.6165122 13.3673604 26.0516129 12.1354839 24.2859621 12.7650316 23.9744812 12.3356315"></polygon>
                            <polygon id="路径-24" fill="#000000" fill-rule="nonzero" mask="url(#mask-16)" points="21.8996794 9.37365841 22.3330698 9.48469494 22.7198157 10.4626728 24.5238722 10.1376863 24.7913492 10.5797812 23.3532747 12.4234339 22.878336 12.3555659 22.3769585 11.0903226 20.1407719 11.5027697 19.9142959 11.0179009"></polygon>
                        </g>
                        <polygon id="路径-52" fill="#DFE4A8" points="89.3603628 54.2157573 89.0311105 48.4504243 119.905224 43.6914963 119.905224 49.1703157"></polygon>
                        <polygon id="路径-52" fill="#E4A8A8" points="81.2993344 61.8798181 80.3856634 53.9456898 124.66141 47.1436672 124.66141 55.0116332"></polygon>
                        <polygon id="路径-52" fill="#CB7F7F" points="79.784875 67.7190065 78.9795484 60.8323481 128.869291 53.9456898 128.226988 61.8798181"></polygon>
                        <polygon id="路径-51" fill="#AD5B5B" points="74.9034235 66.2149878 88.099977 96.8467607 121.799564 92.3918131 133.181805 58.4368025"></polygon>
                        <path d="M100.298763,74.0637151 C102.091165,72.7875403 103.080947,71.3493608 103.268109,69.7491764 C104.200091,65.6702279 104.494325,65.3567547 103.268109,61.7630778 C102.041893,58.169401 106.621555,60.6962564 107.178972,64.2554217 C109.230878,61.2791 111.479503,59.2004591 113.924847,58.0194992 C114.631435,57.7272769 115.11305,57.630591 115.369693,57.7294416 C115.833912,57.9082436 116.008326,58.451569 115.856104,58.8609827 C117.420896,57.8015072 118.541141,57.6307213 118.732168,57.7294416 C119.39842,58.0737527 119.067606,58.5331132 118.868104,59.1939478 C118.633949,59.9695724 121.537141,58.7258053 121.922759,59.5099524 C122.059156,59.7873132 122.218091,60.4426933 120.892137,61.4760157 C119.566183,62.5093381 122.313061,61.8605794 122.432965,62.6841743 C122.512902,63.2332376 122.342833,63.9121375 121.922759,64.720874 C116.440283,72.938562 111.083028,77.554026 105.850993,78.5672658 C100.618958,79.5805057 98.7682149,78.0793221 100.298763,74.0637151 Z" id="路径-48" fill="#FFBCA2"></path>
                        <path d="M84.7713127,105.876897 C78.5128342,112.977497 82.1007248,118.028193 95.5349846,121.028985 C98.2810604,124.372699 102.562634,130.429636 108.379707,139.199798 L87.8672364,170.01957 L116.171426,186.456249 C122.533382,170.559497 127.681521,154.960259 131.615844,139.658536 C133.43319,132.590348 128.889557,127.255891 126.616139,125.397156 C108.183349,113.573606 94.906961,104.855211 86.7869758,99.2419718 L84.7713127,105.876897 Z" id="路径-45" fill="#5E93B3" transform="translate(106.911418, 142.849110) rotate(-8.000000) translate(-106.911418, -142.849110) "></path>
                        <path d="M64.9041987,112.847968 C60.4739061,125.448111 64.9758897,133.248578 78.4101495,136.24937 C81.1562252,139.593084 85.4377993,145.650022 91.2548716,154.420183 L70.7424013,185.239955 L100.955242,203.046245 C107.379009,180.185044 111.260029,163.976357 112.598303,154.420183 C113.013361,151.456389 113.248623,148.761043 112.141299,145.99345 C101.254652,123.907215 91.1054057,108.614359 81.6935596,100.114882 L64.9041987,112.847968 Z" id="路径-45" fill="#376F90"></path>
                        <path d="M49.792368,57.8418378 C49.6204017,64.440363 48.4515505,68.6549192 46.2858146,70.4855062 C44.1200786,72.3160933 48.1681015,72.6119222 58.4298833,71.3729929 C59.5520301,66.5651102 59.9301668,62.8185079 59.5642934,60.133186 C59.1984199,57.4478642 55.9411115,56.6840814 49.792368,57.8418378 Z" id="路径-41" fill="#FFBCA2"></path>
                        <path d="M41.4799985,54.6503726 C38.5335849,55.2334599 36.0685146,56.5091041 34.0847877,58.477305 C31.1091972,61.4296065 29.8950195,64.3070907 29.6946442,66.1842733 C29.1654876,71.141588 36.2743894,72.583214 41.8077319,66.3530341 C44.0757271,63.7994207 44.9679092,60.6658701 44.4842782,56.9523825 L41.4799985,54.6503726 Z" id="路径-39" fill="#5E120F"></path>
                        <path d="M34.600735,69.5350538 C31.4561615,69.9854715 28.8920112,71.1947808 26.9082843,73.1629818 C23.9326938,76.1152832 23.5057207,77.175895 23.5259972,79.0656655 C23.5354158,79.9434799 22.8123054,81.3701968 24.0021306,81.2694244 C29.2737865,80.8229411 31.2984021,82.3405408 35.0678073,78.0964383 C37.3358025,75.5428249 38.0138624,72.7945793 37.1019871,69.8517015 L34.600735,69.5350538 Z" id="路径-39" fill="#5E120F" transform="translate(30.405560, 75.404771) rotate(-17.000000) translate(-30.405560, -75.404771) "></path>
                        <mask id="mask-18" fill="white">
                            <use xlink:href="#path-17"></use>
                        </mask>
                        <use id="椭圆形" fill="#FFBCA2" xlink:href="#path-17"></use>
                        <path d="M45.6757295,28.7642659 C53.0019734,24.9610725 59.0182584,26.0119273 63.7245846,31.9168302 C64.8838588,33.4953062 66.5083625,34.8056776 67.90974,35.2921587 C66.5526405,36.3314062 58.7867561,34.2225527 54.5781993,28.98478 C54.2131231,28.5304234 51.2456332,28.4569187 45.6757295,28.7642659 Z" id="路径-36" fill="#5E120F"></path>
                        <path d="M52.651851,27.687347 C55.9847643,28.8196195 59.5033145,35.9655099 55.8074529,45.233124 C52.7733587,49.5801231 53.5106184,50.0500657 53.5106184,50.8759811 C52.9381068,49.4562902 51.8078595,48.6744402 50.1198764,48.5304309 C47.9823896,48.4660768 47.0821445,49.4094122 47.4191411,51.3604371 C47.7561376,53.3114619 49.6068811,54.2869744 52.9713714,54.2869744 C53.1473032,54.5202254 53.2111323,54.8120128 53.1628587,55.1623366 C52.9713714,55.6320542 52.4767898,55.2908761 52.2101477,56.007997 C51.9435056,56.7251179 50.1153875,59.3845118 47.0007268,59.0962072 C43.3724821,58.7603632 35.6151106,54.8315092 35.2049094,45.233124 C34.761406,37.749991 42.0912501,25.6165395 52.651851,27.687347 Z" id="路径-35" fill="#5E120F"></path>
                        <path d="M54.5258627,39.2682563 C56.9921388,38.7928351 59.0810717,39.2318953 60.7700894,40.5892616 C60.8891206,40.68492 60.9080679,40.8589604 60.8124094,40.9779915 C60.7167509,41.0970226 60.5427106,41.1159699 60.4236795,41.0203115 C58.8673895,39.7696108 56.9438656,39.365317 54.6305358,39.8112548 C54.4805909,39.8401595 54.3356047,39.742037 54.3067,39.5920921 C54.2777953,39.4421472 54.3759178,39.297161 54.5258627,39.2682563 Z" id="路径" fill="#4D1616" fill-rule="nonzero"></path>
                        <path d="M58.1818049,36.0837594 C62.7629687,36.0837594 66.4767358,39.7975264 66.4767358,44.3786902 C66.4767358,48.9598541 62.7629687,52.6736211 58.1818049,52.6736211 C53.6006411,52.6736211 49.886874,48.9598541 49.886874,44.3786902 C49.886874,39.7975264 53.6006411,36.0837594 58.1818049,36.0837594 Z M58.1818049,37.1897501 C54.2114629,37.1897501 50.9928648,40.4083483 50.9928648,44.3786902 C50.9928648,48.3490322 54.2114629,51.5676303 58.1818049,51.5676303 C62.1521469,51.5676303 65.370745,48.3490322 65.370745,44.3786902 C65.370745,40.4083483 62.1521469,37.1897501 58.1818049,37.1897501 Z" id="椭圆形" fill="#110404" fill-rule="nonzero"></path>
                        <ellipse id="椭圆形" fill="#321313" transform="translate(59.564293, 44.378690) rotate(-19.000000) translate(-59.564293, -44.378690) " cx="59.5642934" cy="44.3786902" rx="1.38248848" ry="2.76497696"></ellipse>
                        <path d="M65.3986918,51.0397915 L68.4478864,49.7326829 C68.1010642,52.2862963 67.5928651,53.6792855 66.9232891,53.9116503 C66.2537131,54.1440152 65.745514,53.186729 65.3986918,51.0397915 Z" id="路径-37" fill="#B64E2B"></path>
                        <path d="M1.22789643e-14,84.4072333 C6.86860292,79.2948224 15.6022556,78.0252349 26.2009581,80.5984708 C26.9387498,84.8888555 25.8825065,88.9720442 19.7055237,92.0075447 C13.5285408,95.0430453 8.53744015,92.6508609 7.48150382,89.8732269 C7.45059768,89.7919285 6.32127331,87.523739 4.22307028,86.2922915 C4.18465651,86.231078 7.52157557,86.3519992 7.48150382,86.2922915 C6.42212859,84.7137994 3.92829399,84.0854467 1.22789643e-14,84.4072333 Z" id="路径-40" fill="#5E120F"></path>
                        <mask id="mask-20" fill="white">
                            <use xlink:href="#path-19"></use>
                        </mask>
                        <use id="路径-42" fill="#FEB954" xlink:href="#path-19"></use>
                        <path d="M44.1024288,66.2149878 L42.8741399,74.8008623 C50.2231421,72.1805028 58.0906741,71.2879102 66.4767358,72.1230846 C62.964261,68.7023575 55.5061586,66.7329919 44.1024288,66.2149878 Z" id="路径-43" fill="#D8D8D8" mask="url(#mask-20)"></path>
                        <path d="M57.5875419,91.6668167 C62.8765874,100.553363 70.9955612,105.796494 81.9444633,107.396208 C92.8933655,108.995922 95.0918804,106.850504 88.5400081,100.959954 L57.5875419,91.6668167 Z" id="路径-47" fill="#F9A832" mask="url(#mask-20)"></path>
                        <path d="M60.5968845,76.4088152 C70.6556282,80.8632951 79.4347526,83.892214 86.9342575,85.4955717 C89.9706019,83.140571 93.9194921,78.2483923 98.7809282,70.8190355 L111.371834,80.7743196 C101.085526,94.8745095 94.1690331,102.097472 90.6223561,102.443206 C87.0756791,102.788941 76.0640744,99.3880733 57.5875419,92.2406034 L60.5968845,76.4088152 Z" id="路径-44" fill="#FEB954"></path>
                        <path d="M118.440719,59.5755617 L118.586695,59.8103853 L118.045619,60.1600898 L117.792999,60.3290973 C117.395628,60.5972256 116.998279,60.8765954 116.612837,61.161675 L115.857753,61.7407121 L115.323039,62.1783684 L114.545049,62.8498094 L113.568474,63.7422153 L113.126279,64.1652923 L112.932527,63.9680332 L113.591602,63.3421739 L114.361867,62.6426955 L115.418154,61.7404977 L115.8749,61.3749711 C116.249168,61.0826717 116.641056,60.7936388 117.038802,60.5132721 L118.114404,59.7840019 L118.440719,59.5755617 Z" id="路径" fill="#DE5728" fill-rule="nonzero"></path>
                        <path d="M114.936948,59.6689251 C114.672034,59.8476773 114.201153,60.2165575 113.524304,60.7755655 L112.989591,61.2132219 L112.211601,61.8846628 L111.235026,62.7770688 L110.79283,63.2001457 L110.599078,63.0028866 L111.258153,62.3770273 L112.028419,61.6775489 L113.084706,60.7753511 L113.541452,60.4098245 C113.91572,60.1175251 114.307607,59.8284922 114.705353,59.5481255 L114.936948,59.6689251 Z" id="路径" fill="#DE5728" fill-rule="nonzero"></path>
                        <path d="M119.815671,62.0907523 L119.994777,62.3013994 L118.600312,63.4946885 C116.762779,65.0787125 115.700466,66.0478889 115.537596,66.2742247 L115.516034,66.3132112 C115.500093,66.3878814 115.426639,66.4354913 115.351968,66.4195508 C115.277298,66.4036104 115.229688,66.3301559 115.245629,66.2554857 C115.295553,66.0216256 116.574522,64.8554547 119.316549,62.5158532 L119.815671,62.0907523 Z" id="路径" fill="#DE5728" fill-rule="nonzero"></path>
                        <path d="M98.3031664,4.3077882 C94.5996544,11.2071798 90.1173113,16.1943989 84.856137,19.2694457 C89.7200483,24.0849789 95.1364825,29.5116808 101.105439,35.5495514 C107.551652,33.8115935 113.147648,29.8679615 117.893426,23.7186555 C117.215121,22.9043284 110.685034,16.4340393 98.3031664,4.3077882 Z" id="路径-53" fill="#FF6368"></path>
                        <path d="M90.7478719,9.0344407 C91.6614585,7.28855397 92.1182518,4.51592652 92.1182518,0.71655836 L97.6941087,4.3077882 L117.168261,23.7289499 C113.840298,28.6026294 108.559238,32.519441 101.325082,35.4793847 C101.325082,33.2435573 101.325082,31.7635854 101.325082,31.0394692 C96.5864957,23.9869986 93.0607591,16.6519891 90.7478719,9.0344407 Z" id="路径-55" fill="#FF878B"></path>
                        <path d="M89.0311105,1.22789643e-14 C88.2706743,8.50981963 86.7237566,14.1943584 84.3903572,17.0536164 C89.2542685,21.8691496 94.8259626,27.1654823 101.105439,32.9426146 C105.085719,30.9377363 107.960616,26.4328355 109.730129,19.4279121 C109.051823,18.613585 102.15215,12.1376143 89.0311105,1.22789643e-14 Z" id="路径-53" fill="#FF6368"></path>
                        <polygon id="路径-54" fill="#D7393E" points="84.3903572 17.0536164 84.3903572 19.2169611 101.105439 35.5495514 101.325082 35.4793847 101.325082 32.8248617 101.105439 32.9426146"></polygon>
                    </g>
                </g>
            </g>
        </g>
    </g>
</svg>